<svg width="24px" height="24px" viewBox="0 0 24 24" version="1.1" xmlns="http://www.w3.org/2000/svg" xmlns:xlink="http://www.w3.org/1999/xlink">
    <!-- Generator: Sketch 42 (36781) - http://www.bohemiancoding.com/sketch -->
    <desc>Created with Sketch.</desc>
    <defs></defs>
    <path d="M12,24 C5.372583,24 0,18.627417 0,12 C0,5.372583 5.372583,0 12,0 C18.627417,0 24,5.372583 24,12 C24,18.627417 18.627417,24 12,24 Z M11.9699228,5 C10.4699228,5 10.4699228,6.55278319 10.4699228,6.55278319 L9.86696406,6.96890059 C8.95665692,7.59712709 8.13779944,8.99493857 8.03649519,10.0920348 L7.50040041,15.8977883 L6,15.8977883 L6,17.4472168 L10.5,17.4472168 C10.5,17.4472168 10.5,19 12,19 C13.5,19 13.5,17.4472168 13.5,17.4472168 L18,17.4472168 L18,15.8977883 L16.5,15.8944336 L15.9187876,10.0911796 C15.8094075,8.99904849 14.9825173,7.59666377 14.0728815,6.96890059 L13.4699228,6.55278319 C13.4699228,6.55278319 13.4699228,5 11.9699228,5 Z" id="notifications-icon" fill="#000000" fill-rule="evenodd"></path>
</svg>